<svg xmlns="http://www.w3.org/2000/svg" xmlns:xlink="http://www.w3.org/1999/xlink" version="1.1" x="0px" y="0px" viewBox="0 0 100 125" enable-background="new 0 0 100 100" xml:space="preserve"><path d="M86.727,93.63H44.805c-0.687,0-1.326-0.353-1.692-0.934S42.705,91.388,43,90.768l4.367-9.14  c0.332-0.695,1.034-1.138,1.805-1.138h2.214c0.368-0.961,0.872-2.074,1.518-3.064c-1.796-0.356-3.282-0.72-4.496-1.061  c-5.503,6.968-16.322,11.553-16.805,11.755c-1.019,0.426-2.19-0.054-2.617-1.072c-0.427-1.018,0.053-2.189,1.071-2.617  c0.102-0.043,9.211-3.91,14.311-9.485c-0.302-0.14-0.48-0.237-0.552-0.278c-0.96-0.546-3.924-3.462-2.879-3.104  C54.809,76.31,71,75.125,78.742,69.765c1.05-0.727,1.181-1.652,1.145-2.215c-4.804-0.602-13.756-1.769-15.155-2.277  c-0.172-0.063-0.33-0.113-0.477-0.161c-1.959-0.639-2.927-1.477-3.483-4.758c-0.295-1.738-1.219-5.35-1.699-7.183  c-2.959-0.652-17.812-2.678-20.836-3.021c-1.361-0.158-1.907-0.04-2.535,0.095l-0.369,0.076c-0.385,0.074-1.643,0.604-2.53,1.032  L14.222,61.358c-0.973,0.523-2.186,0.16-2.709-0.813c-0.524-0.973-0.16-2.186,0.813-2.709l18.66-10.047  c0.629-0.306,2.506-1.188,3.586-1.396l0.294-0.062c0.765-0.163,1.812-0.387,3.825-0.157c3.036,0.346,10.527,1.207,14.484,1.744  c3.607,0.489,23.625,5.11,26.91,6.454c0.5,0.205,0.921,0.354,1.278,0.48c2.901,1.029,3.354,2.083,3.614,5.726  c0.21,2.949-0.47,4.966-1.043,6.104c-0.014,0.027-0.027,0.055-0.042,0.082c-0.02,0.036-0.038,0.072-0.057,0.107  c0.209,1.727-0.2,4.351-2.798,6.17c-0.88,0.616-2.234,1.564-4.071,2.511c1.493,1.139,2.542,3.269,3.181,4.938h2.214  c0.771,0,1.473,0.442,1.805,1.138l4.367,9.14c0.296,0.62,0.253,1.348-0.113,1.929S87.414,93.63,86.727,93.63z M47.977,89.63h35.578  l-2.456-5.14H50.433L47.977,89.63z M55.769,80.49H75.76c-0.426-0.847-0.86-1.511-1.171-1.74H56.942  C56.63,78.98,56.195,79.645,55.769,80.49z M65.082,61.167c0.104,0.041,0.277,0.097,0.412,0.141c0.186,0.061,0.386,0.126,0.604,0.205  c0.943,0.301,7.953,1.277,14.709,2.121c0.158-0.685,0.263-1.602,0.18-2.77c-0.028-0.396-0.108-1.522-0.227-1.966  c-0.174-0.076-0.479-0.185-0.734-0.275c-0.406-0.144-0.886-0.314-1.455-0.547c-1.559-0.639-8.653-2.416-15.11-3.912  c0.477,1.885,1.026,4.166,1.256,5.521C64.877,60.645,65.016,61.026,65.082,61.167z M65.766,48.733c-0.653,0-1.265-0.319-1.639-0.854  L49.909,27.535c-0.427-0.611-0.479-1.409-0.134-2.069c0.344-0.661,1.028-1.076,1.773-1.076h4.307v-3.1c0-1.104,0.896-2,2-2h15.3  c1.104,0,2,0.896,2,2v3.1h4.829c0.746,0,1.429,0.415,1.773,1.076c0.345,0.661,0.293,1.459-0.134,2.069L67.405,47.879  C67.031,48.414,66.419,48.733,65.766,48.733z M55.386,28.39l10.38,14.853l10.38-14.853h-2.991c-1.104,0-2-0.896-2-2v-3.1h-11.3v3.1  c0,1.104-0.896,2-2,2H55.386z M72.985,16.83h-15.3c-1.104,0-2-0.896-2-2s0.896-2,2-2h15.3c1.104,0,2,0.896,2,2  S74.09,16.83,72.985,16.83z M72.985,10.37h-15.3c-1.104,0-2-0.896-2-2s0.896-2,2-2h15.3c1.104,0,2,0.896,2,2  S74.09,10.37,72.985,10.37z"/><text x="0" y="115" fill="#000000" font-size="5px" font-weight="bold" font-family="'Helvetica Neue', Helvetica, Arial-Unicode, Arial, Sans-serif">Created by H Alberto Gongora</text><text x="0" y="120" fill="#000000" font-size="5px" font-weight="bold" font-family="'Helvetica Neue', Helvetica, Arial-Unicode, Arial, Sans-serif">from the Noun Project</text></svg>